<svg class="rich-terminal" viewBox="0 0 1482 1026.0" xmlns="http://www.w3.org/2000/svg">
    <!-- Generated with Rich https://www.textualize.io -->
    <style>

    @font-face {
        font-family: "Fira Code";
        src: local("FiraCode-Regular"),
                url("https://cdnjs.cloudflare.com/ajax/libs/firacode/6.2.0/woff2/FiraCode-Regular.woff2") format("woff2"),
                url("https://cdnjs.cloudflare.com/ajax/libs/firacode/6.2.0/woff/FiraCode-Regular.woff") format("woff");
        font-style: normal;
        font-weight: 400;
    }
    @font-face {
        font-family: "Fira Code";
        src: local("FiraCode-Bold"),
                url("https://cdnjs.cloudflare.com/ajax/libs/firacode/6.2.0/woff2/FiraCode-Bold.woff2") format("woff2"),
                url("https://cdnjs.cloudflare.com/ajax/libs/firacode/6.2.0/woff/FiraCode-Bold.woff") format("woff");
        font-style: bold;
        font-weight: 700;
    }

    .terminal-matrix {
        font-family: Fira Code, monospace;
        font-size: 20px;
        line-height: 24.4px;
        font-variant-east-asian: full-width;
    }

    .terminal-title {
        font-size: 18px;
        font-weight: bold;
        font-family: arial;
    }

    .terminal-r1 { fill: #c5c8c6 }
.terminal-r2 { fill: #e2e8f5 }
.terminal-r3 { fill: #a3a8b4 }
.terminal-r4 { fill: #8d939e }
.terminal-r5 { fill: #494f59 }
.terminal-r6 { fill: #00a3d2 }
.terminal-r7 { fill: #58d1eb;font-weight: bold }
.terminal-r8 { fill: #00ff00 }
.terminal-r9 { fill: #5b616b }
.terminal-r10 { fill: #4d9fb3 }
.terminal-r11 { fill: #a8aeba }
.terminal-r12 { fill: #cf8447 }
.terminal-r13 { fill: #393e48 }
.terminal-r14 { fill: #afb1b5 }
.terminal-r15 { fill: #fa5f8b;font-weight: bold }
    </style>

    <defs>
    <clipPath id="terminal-clip-terminal">
      <rect x="0" y="0" width="1463.0" height="975.0" />
    </clipPath>
    <clipPath id="terminal-line-0">
    <rect x="0" y="1.5" width="1464" height="24.65"/>
            </clipPath>
<clipPath id="terminal-line-1">
    <rect x="0" y="25.9" width="1464" height="24.65"/>
            </clipPath>
<clipPath id="terminal-line-2">
    <rect x="0" y="50.3" width="1464" height="24.65"/>
            </clipPath>
<clipPath id="terminal-line-3">
    <rect x="0" y="74.7" width="1464" height="24.65"/>
            </clipPath>
<clipPath id="terminal-line-4">
    <rect x="0" y="99.1" width="1464" height="24.65"/>
            </clipPath>
<clipPath id="terminal-line-5">
    <rect x="0" y="123.5" width="1464" height="24.65"/>
            </clipPath>
<clipPath id="terminal-line-6">
    <rect x="0" y="147.9" width="1464" height="24.65"/>
            </clipPath>
<clipPath id="terminal-line-7">
    <rect x="0" y="172.3" width="1464" height="24.65"/>
            </clipPath>
<clipPath id="terminal-line-8">
    <rect x="0" y="196.7" width="1464" height="24.65"/>
            </clipPath>
<clipPath id="terminal-line-9">
    <rect x="0" y="221.1" width="1464" height="24.65"/>
            </clipPath>
<clipPath id="terminal-line-10">
    <rect x="0" y="245.5" width="1464" height="24.65"/>
            </clipPath>
<clipPath id="terminal-line-11">
    <rect x="0" y="269.9" width="1464" height="24.65"/>
            </clipPath>
<clipPath id="terminal-line-12">
    <rect x="0" y="294.3" width="1464" height="24.65"/>
            </clipPath>
<clipPath id="terminal-line-13">
    <rect x="0" y="318.7" width="1464" height="24.65"/>
            </clipPath>
<clipPath id="terminal-line-14">
    <rect x="0" y="343.1" width="1464" height="24.65"/>
            </clipPath>
<clipPath id="terminal-line-15">
    <rect x="0" y="367.5" width="1464" height="24.65"/>
            </clipPath>
<clipPath id="terminal-line-16">
    <rect x="0" y="391.9" width="1464" height="24.65"/>
            </clipPath>
<clipPath id="terminal-line-17">
    <rect x="0" y="416.3" width="1464" height="24.65"/>
            </clipPath>
<clipPath id="terminal-line-18">
    <rect x="0" y="440.7" width="1464" height="24.65"/>
            </clipPath>
<clipPath id="terminal-line-19">
    <rect x="0" y="465.1" width="1464" height="24.65"/>
            </clipPath>
<clipPath id="terminal-line-20">
    <rect x="0" y="489.5" width="1464" height="24.65"/>
            </clipPath>
<clipPath id="terminal-line-21">
    <rect x="0" y="513.9" width="1464" height="24.65"/>
            </clipPath>
<clipPath id="terminal-line-22">
    <rect x="0" y="538.3" width="1464" height="24.65"/>
            </clipPath>
<clipPath id="terminal-line-23">
    <rect x="0" y="562.7" width="1464" height="24.65"/>
            </clipPath>
<clipPath id="terminal-line-24">
    <rect x="0" y="587.1" width="1464" height="24.65"/>
            </clipPath>
<clipPath id="terminal-line-25">
    <rect x="0" y="611.5" width="1464" height="24.65"/>
            </clipPath>
<clipPath id="terminal-line-26">
    <rect x="0" y="635.9" width="1464" height="24.65"/>
            </clipPath>
<clipPath id="terminal-line-27">
    <rect x="0" y="660.3" width="1464" height="24.65"/>
            </clipPath>
<clipPath id="terminal-line-28">
    <rect x="0" y="684.7" width="1464" height="24.65"/>
            </clipPath>
<clipPath id="terminal-line-29">
    <rect x="0" y="709.1" width="1464" height="24.65"/>
            </clipPath>
<clipPath id="terminal-line-30">
    <rect x="0" y="733.5" width="1464" height="24.65"/>
            </clipPath>
<clipPath id="terminal-line-31">
    <rect x="0" y="757.9" width="1464" height="24.65"/>
            </clipPath>
<clipPath id="terminal-line-32">
    <rect x="0" y="782.3" width="1464" height="24.65"/>
            </clipPath>
<clipPath id="terminal-line-33">
    <rect x="0" y="806.7" width="1464" height="24.65"/>
            </clipPath>
<clipPath id="terminal-line-34">
    <rect x="0" y="831.1" width="1464" height="24.65"/>
            </clipPath>
<clipPath id="terminal-line-35">
    <rect x="0" y="855.5" width="1464" height="24.65"/>
            </clipPath>
<clipPath id="terminal-line-36">
    <rect x="0" y="879.9" width="1464" height="24.65"/>
            </clipPath>
<clipPath id="terminal-line-37">
    <rect x="0" y="904.3" width="1464" height="24.65"/>
            </clipPath>
<clipPath id="terminal-line-38">
    <rect x="0" y="928.7" width="1464" height="24.65"/>
            </clipPath>
    </defs>

    <rect fill="#292929" stroke="rgba(255,255,255,0.35)" stroke-width="1" x="1" y="1" width="1480" height="1024" rx="8"/><text class="terminal-title" fill="#c5c8c6" text-anchor="middle" x="740" y="27">Clide</text>
            <g transform="translate(26,22)">
            <circle cx="0" cy="0" r="7" fill="#ff5f57"/>
            <circle cx="22" cy="0" r="7" fill="#febc2e"/>
            <circle cx="44" cy="0" r="7" fill="#28c840"/>
            </g>

    <g transform="translate(9, 41)" clip-path="url(#terminal-clip-terminal)">
    <rect fill="#292e38" x="0" y="1.5" width="12.2" height="24.65" shape-rendering="crispEdges"/><rect fill="#292e38" x="12.2" y="1.5" width="12.2" height="24.65" shape-rendering="crispEdges"/><rect fill="#292e38" x="24.4" y="1.5" width="61" height="24.65" shape-rendering="crispEdges"/><rect fill="#292e38" x="85.4" y="1.5" width="12.2" height="24.65" shape-rendering="crispEdges"/><rect fill="#292e38" x="97.6" y="1.5" width="475.8" height="24.65" shape-rendering="crispEdges"/><rect fill="#292e38" x="573.4" y="1.5" width="61" height="24.65" shape-rendering="crispEdges"/><rect fill="#292e38" x="634.4" y="1.5" width="36.6" height="24.65" shape-rendering="crispEdges"/><rect fill="#292e38" x="671" y="1.5" width="183" height="24.65" shape-rendering="crispEdges"/><rect fill="#292e38" x="854" y="1.5" width="488" height="24.65" shape-rendering="crispEdges"/><rect fill="#292e38" x="1342" y="1.5" width="12.2" height="24.65" shape-rendering="crispEdges"/><rect fill="#292e38" x="1354.2" y="1.5" width="0" height="24.65" shape-rendering="crispEdges"/><rect fill="#292e38" x="1354.2" y="1.5" width="109.8" height="24.65" shape-rendering="crispEdges"/><rect fill="#393e48" x="0" y="25.9" width="12.2" height="24.65" shape-rendering="crispEdges"/><rect fill="#393e48" x="12.2" y="25.9" width="61" height="24.65" shape-rendering="crispEdges"/><rect fill="#393e48" x="73.2" y="25.9" width="24.4" height="24.65" shape-rendering="crispEdges"/><rect fill="#393e48" x="97.6" y="25.9" width="36.6" height="24.65" shape-rendering="crispEdges"/><rect fill="#393e48" x="134.2" y="25.9" width="24.4" height="24.65" shape-rendering="crispEdges"/><rect fill="#393e48" x="158.6" y="25.9" width="48.8" height="24.65" shape-rendering="crispEdges"/><rect fill="#393e48" x="207.4" y="25.9" width="97.6" height="24.65" shape-rendering="crispEdges"/><rect fill="#393e48" x="1098" y="25.9" width="12.2" height="24.65" shape-rendering="crispEdges"/><rect fill="#393e48" x="1110.2" y="25.9" width="48.8" height="24.65" shape-rendering="crispEdges"/><rect fill="#393e48" x="1159" y="25.9" width="24.4" height="24.65" shape-rendering="crispEdges"/><rect fill="#393e48" x="1183.4" y="25.9" width="122" height="24.65" shape-rendering="crispEdges"/><rect fill="#393e48" x="1305.4" y="25.9" width="24.4" height="24.65" shape-rendering="crispEdges"/><rect fill="#393e48" x="1329.8" y="25.9" width="134.2" height="24.65" shape-rendering="crispEdges"/><rect fill="#393e48" x="0" y="50.3" width="12.2" height="24.65" shape-rendering="crispEdges"/><rect fill="#393e48" x="12.2" y="50.3" width="61" height="24.65" shape-rendering="crispEdges"/><rect fill="#393e48" x="73.2" y="50.3" width="231.8" height="24.65" shape-rendering="crispEdges"/><rect fill="#393e48" x="1098" y="50.3" width="12.2" height="24.65" shape-rendering="crispEdges"/><rect fill="#393e48" x="1110.2" y="50.3" width="48.8" height="24.65" shape-rendering="crispEdges"/><rect fill="#393e48" x="1159" y="50.3" width="305" height="24.65" shape-rendering="crispEdges"/><rect fill="#393e48" x="0" y="74.7" width="24.4" height="24.65" shape-rendering="crispEdges"/><rect fill="#285c71" x="24.4" y="74.7" width="61" height="24.65" shape-rendering="crispEdges"/><rect fill="#393e48" x="85.4" y="74.7" width="219.6" height="24.65" shape-rendering="crispEdges"/><rect fill="#393e48" x="1098" y="74.7" width="366" height="24.65" shape-rendering="crispEdges"/><rect fill="#393e48" x="0" y="99.1" width="48.8" height="24.65" shape-rendering="crispEdges"/><rect fill="#393e48" x="48.8" y="99.1" width="24.4" height="24.65" shape-rendering="crispEdges"/><rect fill="#393e48" x="73.2" y="99.1" width="85.4" height="24.65" shape-rendering="crispEdges"/><rect fill="#393e48" x="158.6" y="99.1" width="146.4" height="24.65" shape-rendering="crispEdges"/><rect fill="#292e38" x="1098" y="99.1" width="366" height="24.65" shape-rendering="crispEdges"/><rect fill="#393e48" x="0" y="123.5" width="48.8" height="24.65" shape-rendering="crispEdges"/><rect fill="#393e48" x="48.8" y="123.5" width="24.4" height="24.65" shape-rendering="crispEdges"/><rect fill="#393e48" x="73.2" y="123.5" width="61" height="24.65" shape-rendering="crispEdges"/><rect fill="#393e48" x="134.2" y="123.5" width="170.8" height="24.65" shape-rendering="crispEdges"/><rect fill="#292e38" x="1098" y="123.5" width="366" height="24.65" shape-rendering="crispEdges"/><rect fill="#393e48" x="0" y="147.9" width="48.8" height="24.65" shape-rendering="crispEdges"/><rect fill="#393e48" x="48.8" y="147.9" width="24.4" height="24.65" shape-rendering="crispEdges"/><rect fill="#393e48" x="73.2" y="147.9" width="61" height="24.65" shape-rendering="crispEdges"/><rect fill="#393e48" x="134.2" y="147.9" width="170.8" height="24.65" shape-rendering="crispEdges"/><rect fill="#292e38" x="1098" y="147.9" width="61" height="24.65" shape-rendering="crispEdges"/><rect fill="#292e38" x="1159" y="147.9" width="231.8" height="24.65" shape-rendering="crispEdges"/><rect fill="#292e38" x="1390.8" y="147.9" width="73.2" height="24.65" shape-rendering="crispEdges"/><rect fill="#393e48" x="0" y="172.3" width="48.8" height="24.65" shape-rendering="crispEdges"/><rect fill="#393e48" x="48.8" y="172.3" width="24.4" height="24.65" shape-rendering="crispEdges"/><rect fill="#393e48" x="73.2" y="172.3" width="48.8" height="24.65" shape-rendering="crispEdges"/><rect fill="#393e48" x="122" y="172.3" width="183" height="24.65" shape-rendering="crispEdges"/><rect fill="#292e38" x="1098" y="172.3" width="122" height="24.65" shape-rendering="crispEdges"/><rect fill="#292e38" x="1220" y="172.3" width="109.8" height="24.65" shape-rendering="crispEdges"/><rect fill="#292e38" x="1329.8" y="172.3" width="134.2" height="24.65" shape-rendering="crispEdges"/><rect fill="#393e48" x="0" y="196.7" width="48.8" height="24.65" shape-rendering="crispEdges"/><rect fill="#393e48" x="48.8" y="196.7" width="24.4" height="24.65" shape-rendering="crispEdges"/><rect fill="#393e48" x="73.2" y="196.7" width="48.8" height="24.65" shape-rendering="crispEdges"/><rect fill="#393e48" x="122" y="196.7" width="183" height="24.65" shape-rendering="crispEdges"/><rect fill="#292e38" x="1098" y="196.7" width="183" height="24.65" shape-rendering="crispEdges"/><rect fill="#292e38" x="1281" y="196.7" width="0" height="24.65" shape-rendering="crispEdges"/><rect fill="#292e38" x="1281" y="196.7" width="183" height="24.65" shape-rendering="crispEdges"/><rect fill="#393e48" x="0" y="221.1" width="48.8" height="24.65" shape-rendering="crispEdges"/><rect fill="#393e48" x="48.8" y="221.1" width="24.4" height="24.65" shape-rendering="crispEdges"/><rect fill="#393e48" x="73.2" y="221.1" width="61" height="24.65" shape-rendering="crispEdges"/><rect fill="#393e48" x="134.2" y="221.1" width="170.8" height="24.65" shape-rendering="crispEdges"/><rect fill="#292e38" x="1098" y="221.1" width="24.4" height="24.65" shape-rendering="crispEdges"/><rect fill="#292e38" x="1122.4" y="221.1" width="317.2" height="24.65" shape-rendering="crispEdges"/><rect fill="#292e38" x="1439.6" y="221.1" width="24.4" height="24.65" shape-rendering="crispEdges"/><rect fill="#393e48" x="0" y="245.5" width="48.8" height="24.65" shape-rendering="crispEdges"/><rect fill="#393e48" x="48.8" y="245.5" width="134.2" height="24.65" shape-rendering="crispEdges"/><rect fill="#393e48" x="183" y="245.5" width="122" height="24.65" shape-rendering="crispEdges"/><rect fill="#292e38" x="1098" y="245.5" width="36.6" height="24.65" shape-rendering="crispEdges"/><rect fill="#292e38" x="1134.6" y="245.5" width="280.6" height="24.65" shape-rendering="crispEdges"/><rect fill="#292e38" x="1415.2" y="245.5" width="48.8" height="24.65" shape-rendering="crispEdges"/><rect fill="#393e48" x="0" y="269.9" width="48.8" height="24.65" shape-rendering="crispEdges"/><rect fill="#393e48" x="48.8" y="269.9" width="146.4" height="24.65" shape-rendering="crispEdges"/><rect fill="#393e48" x="195.2" y="269.9" width="109.8" height="24.65" shape-rendering="crispEdges"/><rect fill="#292e38" x="1098" y="269.9" width="366" height="24.65" shape-rendering="crispEdges"/><rect fill="#393e48" x="0" y="294.3" width="48.8" height="24.65" shape-rendering="crispEdges"/><rect fill="#393e48" x="48.8" y="294.3" width="256.2" height="24.65" shape-rendering="crispEdges"/><rect fill="#292e38" x="1098" y="294.3" width="366" height="24.65" shape-rendering="crispEdges"/><rect fill="#393e48" x="0" y="318.7" width="48.8" height="24.65" shape-rendering="crispEdges"/><rect fill="#393e48" x="48.8" y="318.7" width="24.4" height="24.65" shape-rendering="crispEdges"/><rect fill="#393e48" x="73.2" y="318.7" width="231.8" height="24.65" shape-rendering="crispEdges"/><rect fill="#21262f" x="1098" y="318.7" width="366" height="24.65" shape-rendering="crispEdges"/><rect fill="#393e48" x="0" y="343.1" width="48.8" height="24.65" shape-rendering="crispEdges"/><rect fill="#393e48" x="48.8" y="343.1" width="24.4" height="24.65" shape-rendering="crispEdges"/><rect fill="#393e48" x="73.2" y="343.1" width="109.8" height="24.65" shape-rendering="crispEdges"/><rect fill="#393e48" x="183" y="343.1" width="122" height="24.65" shape-rendering="crispEdges"/><rect fill="#21262f" x="1098" y="343.1" width="366" height="24.65" shape-rendering="crispEdges"/><rect fill="#393e48" x="0" y="367.5" width="48.8" height="24.65" shape-rendering="crispEdges"/><rect fill="#393e48" x="48.8" y="367.5" width="24.4" height="24.65" shape-rendering="crispEdges"/><rect fill="#393e48" x="73.2" y="367.5" width="219.6" height="24.65" shape-rendering="crispEdges"/><rect fill="#393e48" x="292.8" y="367.5" width="12.2" height="24.65" shape-rendering="crispEdges"/><rect fill="#21262f" x="1098" y="367.5" width="366" height="24.65" shape-rendering="crispEdges"/><rect fill="#393e48" x="0" y="391.9" width="48.8" height="24.65" shape-rendering="crispEdges"/><rect fill="#393e48" x="48.8" y="391.9" width="24.4" height="24.65" shape-rendering="crispEdges"/><rect fill="#393e48" x="73.2" y="391.9" width="97.6" height="24.65" shape-rendering="crispEdges"/><rect fill="#393e48" x="170.8" y="391.9" width="134.2" height="24.65" shape-rendering="crispEdges"/><rect fill="#21262f" x="1098" y="391.9" width="366" height="24.65" shape-rendering="crispEdges"/><rect fill="#393e48" x="0" y="416.3" width="48.8" height="24.65" shape-rendering="crispEdges"/><rect fill="#393e48" x="48.8" y="416.3" width="24.4" height="24.65" shape-rendering="crispEdges"/><rect fill="#393e48" x="73.2" y="416.3" width="170.8" height="24.65" shape-rendering="crispEdges"/><rect fill="#393e48" x="244" y="416.3" width="61" height="24.65" shape-rendering="crispEdges"/><rect fill="#21262f" x="1098" y="416.3" width="366" height="24.65" shape-rendering="crispEdges"/><rect fill="#393e48" x="0" y="440.7" width="48.8" height="24.65" shape-rendering="crispEdges"/><rect fill="#393e48" x="48.8" y="440.7" width="24.4" height="24.65" shape-rendering="crispEdges"/><rect fill="#393e48" x="73.2" y="440.7" width="109.8" height="24.65" shape-rendering="crispEdges"/><rect fill="#393e48" x="183" y="440.7" width="122" height="24.65" shape-rendering="crispEdges"/><rect fill="#21262f" x="1098" y="440.7" width="366" height="24.65" shape-rendering="crispEdges"/><rect fill="#393e48" x="0" y="465.1" width="48.8" height="24.65" shape-rendering="crispEdges"/><rect fill="#393e48" x="48.8" y="465.1" width="24.4" height="24.65" shape-rendering="crispEdges"/><rect fill="#393e48" x="73.2" y="465.1" width="231.8" height="24.65" shape-rendering="crispEdges"/><rect fill="#21262f" x="1098" y="465.1" width="366" height="24.65" shape-rendering="crispEdges"/><rect fill="#393e48" x="0" y="489.5" width="48.8" height="24.65" shape-rendering="crispEdges"/><rect fill="#393e48" x="48.8" y="489.5" width="24.4" height="24.65" shape-rendering="crispEdges"/><rect fill="#393e48" x="73.2" y="489.5" width="85.4" height="24.65" shape-rendering="crispEdges"/><rect fill="#393e48" x="158.6" y="489.5" width="146.4" height="24.65" shape-rendering="crispEdges"/><rect fill="#21262f" x="1098" y="489.5" width="366" height="24.65" shape-rendering="crispEdges"/><rect fill="#393e48" x="0" y="513.9" width="305" height="24.65" shape-rendering="crispEdges"/><rect fill="#21262f" x="1098" y="513.9" width="366" height="24.65" shape-rendering="crispEdges"/><rect fill="#393e48" x="0" y="538.3" width="305" height="24.65" shape-rendering="crispEdges"/><rect fill="#21262f" x="1098" y="538.3" width="366" height="24.65" shape-rendering="crispEdges"/><rect fill="#393e48" x="0" y="562.7" width="305" height="24.65" shape-rendering="crispEdges"/><rect fill="#21262f" x="1098" y="562.7" width="366" height="24.65" shape-rendering="crispEdges"/><rect fill="#393e48" x="0" y="587.1" width="305" height="24.65" shape-rendering="crispEdges"/><rect fill="#21262f" x="1098" y="587.1" width="366" height="24.65" shape-rendering="crispEdges"/><rect fill="#393e48" x="0" y="611.5" width="305" height="24.65" shape-rendering="crispEdges"/><rect fill="#21262f" x="1098" y="611.5" width="366" height="24.65" shape-rendering="crispEdges"/><rect fill="#393e48" x="0" y="635.9" width="305" height="24.65" shape-rendering="crispEdges"/><rect fill="#21262f" x="1098" y="635.9" width="366" height="24.65" shape-rendering="crispEdges"/><rect fill="#393e48" x="0" y="660.3" width="305" height="24.65" shape-rendering="crispEdges"/><rect fill="#21262f" x="1098" y="660.3" width="366" height="24.65" shape-rendering="crispEdges"/><rect fill="#393e48" x="0" y="684.7" width="305" height="24.65" shape-rendering="crispEdges"/><rect fill="#21262f" x="1098" y="684.7" width="366" height="24.65" shape-rendering="crispEdges"/><rect fill="#393e48" x="0" y="709.1" width="305" height="24.65" shape-rendering="crispEdges"/><rect fill="#21262f" x="1098" y="709.1" width="366" height="24.65" shape-rendering="crispEdges"/><rect fill="#393e48" x="0" y="733.5" width="305" height="24.65" shape-rendering="crispEdges"/><rect fill="#21262f" x="1098" y="733.5" width="366" height="24.65" shape-rendering="crispEdges"/><rect fill="#393e48" x="0" y="757.9" width="305" height="24.65" shape-rendering="crispEdges"/><rect fill="#21262f" x="1098" y="757.9" width="366" height="24.65" shape-rendering="crispEdges"/><rect fill="#393e48" x="0" y="782.3" width="305" height="24.65" shape-rendering="crispEdges"/><rect fill="#21262f" x="1098" y="782.3" width="366" height="24.65" shape-rendering="crispEdges"/><rect fill="#393e48" x="0" y="806.7" width="305" height="24.65" shape-rendering="crispEdges"/><rect fill="#21262f" x="1098" y="806.7" width="366" height="24.65" shape-rendering="crispEdges"/><rect fill="#393e48" x="0" y="831.1" width="305" height="24.65" shape-rendering="crispEdges"/><rect fill="#21262f" x="1098" y="831.1" width="366" height="24.65" shape-rendering="crispEdges"/><rect fill="#393e48" x="0" y="855.5" width="305" height="24.65" shape-rendering="crispEdges"/><rect fill="#21262f" x="1098" y="855.5" width="366" height="24.65" shape-rendering="crispEdges"/><rect fill="#393e48" x="0" y="879.9" width="305" height="24.65" shape-rendering="crispEdges"/><rect fill="#21262f" x="1098" y="879.9" width="366" height="24.65" shape-rendering="crispEdges"/><rect fill="#0a4e66" x="0" y="904.3" width="207.4" height="24.65" shape-rendering="crispEdges"/><rect fill="#11161f" x="207.4" y="904.3" width="97.6" height="24.65" shape-rendering="crispEdges"/><rect fill="#21262f" x="1098" y="904.3" width="366" height="24.65" shape-rendering="crispEdges"/><rect fill="#393e48" x="0" y="928.7" width="12.2" height="24.65" shape-rendering="crispEdges"/><rect fill="#393e48" x="12.2" y="928.7" width="12.2" height="24.65" shape-rendering="crispEdges"/><rect fill="#393e48" x="24.4" y="928.7" width="12.2" height="24.65" shape-rendering="crispEdges"/><rect fill="#393e48" x="36.6" y="928.7" width="48.8" height="24.65" shape-rendering="crispEdges"/><rect fill="#393e48" x="85.4" y="928.7" width="97.6" height="24.65" shape-rendering="crispEdges"/><rect fill="#393e48" x="183" y="928.7" width="12.2" height="24.65" shape-rendering="crispEdges"/><rect fill="#393e48" x="195.2" y="928.7" width="12.2" height="24.65" shape-rendering="crispEdges"/><rect fill="#393e48" x="207.4" y="928.7" width="85.4" height="24.65" shape-rendering="crispEdges"/><rect fill="#393e48" x="292.8" y="928.7" width="12.2" height="24.65" shape-rendering="crispEdges"/><rect fill="#21262f" x="1098" y="928.7" width="366" height="24.65" shape-rendering="crispEdges"/><rect fill="#292e38" x="0" y="953.1" width="85.4" height="24.65" shape-rendering="crispEdges"/><rect fill="#292e38" x="85.4" y="953.1" width="61" height="24.65" shape-rendering="crispEdges"/><rect fill="#292e38" x="146.4" y="953.1" width="85.4" height="24.65" shape-rendering="crispEdges"/><rect fill="#292e38" x="231.8" y="953.1" width="109.8" height="24.65" shape-rendering="crispEdges"/><rect fill="#292e38" x="341.6" y="953.1" width="85.4" height="24.65" shape-rendering="crispEdges"/><rect fill="#292e38" x="427" y="953.1" width="134.2" height="24.65" shape-rendering="crispEdges"/><rect fill="#292e38" x="561.2" y="953.1" width="85.4" height="24.65" shape-rendering="crispEdges"/><rect fill="#292e38" x="646.6" y="953.1" width="97.6" height="24.65" shape-rendering="crispEdges"/><rect fill="#292e38" x="744.2" y="953.1" width="158.6" height="24.65" shape-rendering="crispEdges"/><rect fill="#292e38" x="902.8" y="953.1" width="97.6" height="24.65" shape-rendering="crispEdges"/><rect fill="#292e38" x="1000.4" y="953.1" width="85.4" height="24.65" shape-rendering="crispEdges"/><rect fill="#292e38" x="1085.8" y="953.1" width="109.8" height="24.65" shape-rendering="crispEdges"/><rect fill="#292e38" x="1195.6" y="953.1" width="85.4" height="24.65" shape-rendering="crispEdges"/><rect fill="#292e38" x="1281" y="953.1" width="97.6" height="24.65" shape-rendering="crispEdges"/><rect fill="#292e38" x="1378.6" y="953.1" width="61" height="24.65" shape-rendering="crispEdges"/><rect fill="#292e38" x="1439.6" y="953.1" width="24.4" height="24.65" shape-rendering="crispEdges"/>
    <g class="terminal-matrix">
    <text class="terminal-r2" x="12.2" y="20" textLength="12.2" clip-path="url(#terminal-line-0)">⭘</text><text class="terminal-r2" x="573.4" y="20" textLength="61" clip-path="url(#terminal-line-0)">Clide</text><text class="terminal-r3" x="634.4" y="20" textLength="36.6" clip-path="url(#terminal-line-0)">&#160;—&#160;</text><text class="terminal-r3" x="671" y="20" textLength="183" clip-path="url(#terminal-line-0)">Claude&#160;Code&#160;IDE</text><text class="terminal-r1" x="1464" y="20" textLength="12.2" clip-path="url(#terminal-line-0)">
</text><text class="terminal-r2" x="12.2" y="44.4" textLength="61" clip-path="url(#terminal-line-1)">Files</text><text class="terminal-r4" x="97.6" y="44.4" textLength="36.6" clip-path="url(#terminal-line-1)">Git</text><text class="terminal-r4" x="158.6" y="44.4" textLength="48.8" clip-path="url(#terminal-line-1)">Tree</text><text class="terminal-r2" x="1110.2" y="44.4" textLength="48.8" clip-path="url(#terminal-line-1)">Jira</text><text class="terminal-r4" x="1183.4" y="44.4" textLength="122" clip-path="url(#terminal-line-1)">TODOs&#160;(96)</text><text class="terminal-r4" x="1329.8" y="44.4" textLength="134.2" clip-path="url(#terminal-line-1)">Problems&#160;(1</text><text class="terminal-r1" x="1464" y="44.4" textLength="12.2" clip-path="url(#terminal-line-1)">
</text><text class="terminal-r5" x="0" y="68.8" textLength="12.2" clip-path="url(#terminal-line-2)">╸</text><text class="terminal-r6" x="12.2" y="68.8" textLength="61" clip-path="url(#terminal-line-2)">━━━━━</text><text class="terminal-r5" x="73.2" y="68.8" textLength="231.8" clip-path="url(#terminal-line-2)">╺━━━━━━━━━━━━━━━━━━</text><text class="terminal-r5" x="1098" y="68.8" textLength="12.2" clip-path="url(#terminal-line-2)">╸</text><text class="terminal-r6" x="1110.2" y="68.8" textLength="48.8" clip-path="url(#terminal-line-2)">━━━━</text><text class="terminal-r5" x="1159" y="68.8" textLength="305" clip-path="url(#terminal-line-2)">╺━━━━━━━━━━━━━━━━━━━━━━━━</text><text class="terminal-r1" x="1464" y="68.8" textLength="12.2" clip-path="url(#terminal-line-2)">
</text><text class="terminal-r7" x="0" y="93.2" textLength="24.4" clip-path="url(#terminal-line-3)">▾&#160;</text><text class="terminal-r2" x="24.4" y="93.2" textLength="61" clip-path="url(#terminal-line-3)">clide</text><text class="terminal-r1" x="1464" y="93.2" textLength="12.2" clip-path="url(#terminal-line-3)">
</text><text class="terminal-r9" x="0" y="117.6" textLength="48.8" clip-path="url(#terminal-line-4)">├──&#160;</text><text class="terminal-r10" x="48.8" y="117.6" textLength="24.4" clip-path="url(#terminal-line-4)">▸&#160;</text><text class="terminal-r11" x="73.2" y="117.6" textLength="85.4" clip-path="url(#terminal-line-4)">.claude</text><text class="terminal-r1" x="1464" y="117.6" textLength="12.2" clip-path="url(#terminal-line-4)">
</text><text class="terminal-r9" x="0" y="142" textLength="48.8" clip-path="url(#terminal-line-5)">├──&#160;</text><text class="terminal-r10" x="48.8" y="142" textLength="24.4" clip-path="url(#terminal-line-5)">▸&#160;</text><text class="terminal-r11" x="73.2" y="142" textLength="61" clip-path="url(#terminal-line-5)">.venv</text><text class="terminal-r1" x="1464" y="142" textLength="12.2" clip-path="url(#terminal-line-5)">
</text><text class="terminal-r9" x="0" y="166.4" textLength="48.8" clip-path="url(#terminal-line-6)">├──&#160;</text><text class="terminal-r7" x="48.8" y="166.4" textLength="24.4" clip-path="url(#terminal-line-6)">▸&#160;</text><text class="terminal-r2" x="73.2" y="166.4" textLength="61" clip-path="url(#terminal-line-6)">clide</text><text class="terminal-r12" x="1159" y="166.4" textLength="231.8" clip-path="url(#terminal-line-6)">Jira&#160;integration&#160;is</text><text class="terminal-r1" x="1464" y="166.4" textLength="12.2" clip-path="url(#terminal-line-6)">
</text><text class="terminal-r9" x="0" y="190.8" textLength="48.8" clip-path="url(#terminal-line-7)">├──&#160;</text><text class="terminal-r7" x="48.8" y="190.8" textLength="24.4" clip-path="url(#terminal-line-7)">▸&#160;</text><text class="terminal-r2" x="73.2" y="190.8" textLength="48.8" clip-path="url(#terminal-line-7)">docs</text><text class="terminal-r12" x="1220" y="190.8" textLength="109.8" clip-path="url(#terminal-line-7)">disabled.</text><text class="terminal-r1" x="1464" y="190.8" textLength="12.2" clip-path="url(#terminal-line-7)">
</text><text class="terminal-r9" x="0" y="215.2" textLength="48.8" clip-path="url(#terminal-line-8)">├──&#160;</text><text class="terminal-r7" x="48.8" y="215.2" textLength="24.4" clip-path="url(#terminal-line-8)">▸&#160;</text><text class="terminal-r2" x="73.2" y="215.2" textLength="48.8" clip-path="url(#terminal-line-8)">logs</text><text class="terminal-r1" x="1464" y="215.2" textLength="12.2" clip-path="url(#terminal-line-8)">
</text><text class="terminal-r9" x="0" y="239.6" textLength="48.8" clip-path="url(#terminal-line-9)">├──&#160;</text><text class="terminal-r7" x="48.8" y="239.6" textLength="24.4" clip-path="url(#terminal-line-9)">▸&#160;</text><text class="terminal-r2" x="73.2" y="239.6" textLength="61" clip-path="url(#terminal-line-9)">tests</text><text class="terminal-r12" x="1122.4" y="239.6" textLength="317.2" clip-path="url(#terminal-line-9)">Enable&#160;it&#160;in&#160;settings&#160;with</text><text class="terminal-r1" x="1464" y="239.6" textLength="12.2" clip-path="url(#terminal-line-9)">
</text><text class="terminal-r9" x="0" y="264" textLength="48.8" clip-path="url(#terminal-line-10)">├──&#160;</text><text class="terminal-r11" x="48.8" y="264" textLength="134.2" clip-path="url(#terminal-line-10)">◦&#160;.coverage</text><text class="terminal-r12" x="1134.6" y="264" textLength="280.6" clip-path="url(#terminal-line-10)">CLIDE_JIRA_ENABLED=true</text><text class="terminal-r1" x="1464" y="264" textLength="12.2" clip-path="url(#terminal-line-10)">
</text><text class="terminal-r9" x="0" y="288.4" textLength="48.8" clip-path="url(#terminal-line-11)">├──&#160;</text><text class="terminal-r11" x="48.8" y="288.4" textLength="146.4" clip-path="url(#terminal-line-11)">◦&#160;.gitignore</text><text class="terminal-r1" x="1464" y="288.4" textLength="12.2" clip-path="url(#terminal-line-11)">
</text><text class="terminal-r9" x="0" y="312.8" textLength="48.8" clip-path="url(#terminal-line-12)">├──&#160;</text><text class="terminal-r11" x="48.8" y="312.8" textLength="256.2" clip-path="url(#terminal-line-12)">◦&#160;.pre-commit-config.</text><text class="terminal-r1" x="1464" y="312.8" textLength="12.2" clip-path="url(#terminal-line-12)">
</text><text class="terminal-r9" x="0" y="337.2" textLength="48.8" clip-path="url(#terminal-line-13)">├──&#160;</text><text class="terminal-r11" x="48.8" y="337.2" textLength="24.4" clip-path="url(#terminal-line-13)">◦&#160;</text><text class="terminal-r2" x="73.2" y="337.2" textLength="231.8" clip-path="url(#terminal-line-13)">claude-authentik-cr</text><text class="terminal-r1" x="1464" y="337.2" textLength="12.2" clip-path="url(#terminal-line-13)">
</text><text class="terminal-r9" x="0" y="361.6" textLength="48.8" clip-path="url(#terminal-line-14)">├──&#160;</text><text class="terminal-r11" x="48.8" y="361.6" textLength="24.4" clip-path="url(#terminal-line-14)">◦&#160;</text><text class="terminal-r2" x="73.2" y="361.6" textLength="109.8" clip-path="url(#terminal-line-14)">CLAUDE.md</text><text class="terminal-r1" x="1464" y="361.6" textLength="12.2" clip-path="url(#terminal-line-14)">
</text><text class="terminal-r9" x="0" y="386" textLength="48.8" clip-path="url(#terminal-line-15)">├──&#160;</text><text class="terminal-r11" x="48.8" y="386" textLength="24.4" clip-path="url(#terminal-line-15)">◦&#160;</text><text class="terminal-r2" x="73.2" y="386" textLength="219.6" clip-path="url(#terminal-line-15)">firebase-debug.log</text><text class="terminal-r1" x="1464" y="386" textLength="12.2" clip-path="url(#terminal-line-15)">
</text><text class="terminal-r9" x="0" y="410.4" textLength="48.8" clip-path="url(#terminal-line-16)">├──&#160;</text><text class="terminal-r11" x="48.8" y="410.4" textLength="24.4" clip-path="url(#terminal-line-16)">◦&#160;</text><text class="terminal-r2" x="73.2" y="410.4" textLength="97.6" clip-path="url(#terminal-line-16)">Makefile</text><text class="terminal-r1" x="1464" y="410.4" textLength="12.2" clip-path="url(#terminal-line-16)">
</text><text class="terminal-r9" x="0" y="434.8" textLength="48.8" clip-path="url(#terminal-line-17)">├──&#160;</text><text class="terminal-r11" x="48.8" y="434.8" textLength="24.4" clip-path="url(#terminal-line-17)">◦&#160;</text><text class="terminal-r2" x="73.2" y="434.8" textLength="170.8" clip-path="url(#terminal-line-17)">pyproject.toml</text><text class="terminal-r1" x="1464" y="434.8" textLength="12.2" clip-path="url(#terminal-line-17)">
</text><text class="terminal-r9" x="0" y="459.2" textLength="48.8" clip-path="url(#terminal-line-18)">├──&#160;</text><text class="terminal-r11" x="48.8" y="459.2" textLength="24.4" clip-path="url(#terminal-line-18)">◦&#160;</text><text class="terminal-r2" x="73.2" y="459.2" textLength="109.8" clip-path="url(#terminal-line-18)">README.md</text><text class="terminal-r1" x="1464" y="459.2" textLength="12.2" clip-path="url(#terminal-line-18)">
</text><text class="terminal-r9" x="0" y="483.6" textLength="48.8" clip-path="url(#terminal-line-19)">├──&#160;</text><text class="terminal-r11" x="48.8" y="483.6" textLength="24.4" clip-path="url(#terminal-line-19)">◦&#160;</text><text class="terminal-r2" x="73.2" y="483.6" textLength="231.8" clip-path="url(#terminal-line-19)">snapshot_report.htm</text><text class="terminal-r1" x="1464" y="483.6" textLength="12.2" clip-path="url(#terminal-line-19)">
</text><text class="terminal-r9" x="0" y="508" textLength="48.8" clip-path="url(#terminal-line-20)">└──&#160;</text><text class="terminal-r11" x="48.8" y="508" textLength="24.4" clip-path="url(#terminal-line-20)">◦&#160;</text><text class="terminal-r2" x="73.2" y="508" textLength="85.4" clip-path="url(#terminal-line-20)">TODO.md</text><text class="terminal-r1" x="1464" y="508" textLength="12.2" clip-path="url(#terminal-line-20)">
</text><text class="terminal-r1" x="1464" y="532.4" textLength="12.2" clip-path="url(#terminal-line-21)">
</text><text class="terminal-r1" x="1464" y="556.8" textLength="12.2" clip-path="url(#terminal-line-22)">
</text><text class="terminal-r1" x="1464" y="581.2" textLength="12.2" clip-path="url(#terminal-line-23)">
</text><text class="terminal-r1" x="1464" y="605.6" textLength="12.2" clip-path="url(#terminal-line-24)">
</text><text class="terminal-r1" x="1464" y="630" textLength="12.2" clip-path="url(#terminal-line-25)">
</text><text class="terminal-r1" x="1464" y="654.4" textLength="12.2" clip-path="url(#terminal-line-26)">
</text><text class="terminal-r1" x="1464" y="678.8" textLength="12.2" clip-path="url(#terminal-line-27)">
</text><text class="terminal-r1" x="1464" y="703.2" textLength="12.2" clip-path="url(#terminal-line-28)">
</text><text class="terminal-r1" x="1464" y="727.6" textLength="12.2" clip-path="url(#terminal-line-29)">
</text><text class="terminal-r1" x="1464" y="752" textLength="12.2" clip-path="url(#terminal-line-30)">
</text><text class="terminal-r1" x="1464" y="776.4" textLength="12.2" clip-path="url(#terminal-line-31)">
</text><text class="terminal-r1" x="1464" y="800.8" textLength="12.2" clip-path="url(#terminal-line-32)">
</text><text class="terminal-r1" x="1464" y="825.2" textLength="12.2" clip-path="url(#terminal-line-33)">
</text><text class="terminal-r1" x="1464" y="849.6" textLength="12.2" clip-path="url(#terminal-line-34)">
</text><text class="terminal-r1" x="1464" y="874" textLength="12.2" clip-path="url(#terminal-line-35)">
</text><text class="terminal-r1" x="1464" y="898.4" textLength="12.2" clip-path="url(#terminal-line-36)">
</text><text class="terminal-r1" x="1464" y="922.8" textLength="12.2" clip-path="url(#terminal-line-37)">
</text><text class="terminal-r2" x="12.2" y="947.2" textLength="12.2" clip-path="url(#terminal-line-38)">⎇</text><text class="terminal-r2" x="36.6" y="947.2" textLength="48.8" clip-path="url(#terminal-line-38)">main</text><text class="terminal-r2" x="183" y="947.2" textLength="12.2" clip-path="url(#terminal-line-38)">▾</text><text class="terminal-r14" x="207.4" y="947.2" textLength="85.4" clip-path="url(#terminal-line-38)">unstage</text><text class="terminal-r1" x="1464" y="947.2" textLength="12.2" clip-path="url(#terminal-line-38)">
</text><text class="terminal-r15" x="0" y="971.6" textLength="85.4" clip-path="url(#terminal-line-39)">&#160;alt+q&#160;</text><text class="terminal-r2" x="85.4" y="971.6" textLength="61" clip-path="url(#terminal-line-39)">Quit&#160;</text><text class="terminal-r15" x="146.4" y="971.6" textLength="85.4" clip-path="url(#terminal-line-39)">&#160;alt+p&#160;</text><text class="terminal-r2" x="231.8" y="971.6" textLength="109.8" clip-path="url(#terminal-line-39)">Commands&#160;</text><text class="terminal-r15" x="341.6" y="971.6" textLength="85.4" clip-path="url(#terminal-line-39)">&#160;alt+o&#160;</text><text class="terminal-r2" x="427" y="971.6" textLength="134.2" clip-path="url(#terminal-line-39)">Quick&#160;Open&#160;</text><text class="terminal-r15" x="561.2" y="971.6" textLength="85.4" clip-path="url(#terminal-line-39)">&#160;alt+b&#160;</text><text class="terminal-r2" x="646.6" y="971.6" textLength="97.6" clip-path="url(#terminal-line-39)">Sidebar&#160;</text><text class="terminal-r15" x="744.2" y="971.6" textLength="158.6" clip-path="url(#terminal-line-39)">&#160;alt+shift+b&#160;</text><text class="terminal-r2" x="902.8" y="971.6" textLength="97.6" clip-path="url(#terminal-line-39)">Context&#160;</text><text class="terminal-r15" x="1000.4" y="971.6" textLength="85.4" clip-path="url(#terminal-line-39)">&#160;alt+`&#160;</text><text class="terminal-r2" x="1085.8" y="971.6" textLength="109.8" clip-path="url(#terminal-line-39)">Terminal&#160;</text><text class="terminal-r15" x="1195.6" y="971.6" textLength="85.4" clip-path="url(#terminal-line-39)">&#160;alt+c&#160;</text><text class="terminal-r2" x="1281" y="971.6" textLength="97.6" clip-path="url(#terminal-line-39)">Compact&#160;</text><text class="terminal-r15" x="1378.6" y="971.6" textLength="61" clip-path="url(#terminal-line-39)">&#160;f11&#160;</text><text class="terminal-r2" x="1439.6" y="971.6" textLength="24.4" clip-path="url(#terminal-line-39)">Fu</text>
    </g>
    </g>
</svg>
